<svg xmlns="http://www.w3.org/2000/svg" width="1600" height="900" viewBox="0 0 1600 900" fill="none">
  <rect width="1600" height="900" fill="#020617"/>
  <rect x="50" y="50" width="1500" height="800" rx="24" fill="#0F172A" stroke="#1E293B"/>
  <rect x="120" y="120" width="1360" height="660" rx="18" fill="#0B1220" stroke="#334155"/>
  <rect x="220" y="220" width="230" height="90" rx="16" fill="#0F172A" stroke="#38BDF8"/>
  <rect x="560" y="220" width="230" height="90" rx="16" fill="#0F172A" stroke="#6366F1"/>
  <rect x="900" y="220" width="230" height="90" rx="16" fill="#0F172A" stroke="#A855F7"/>
  <rect x="560" y="440" width="230" height="90" rx="16" fill="#0F172A" stroke="#22C55E"/>
  <rect x="900" y="440" width="230" height="90" rx="16" fill="#0F172A" stroke="#F59E0B"/>
  <rect x="1240" y="440" width="180" height="90" rx="16" fill="#0F172A" stroke="#14B8A6"/>
  <text x="335" y="275" fill="#E2E8F0" font-family="Inter, Arial, sans-serif" font-size="26" text-anchor="middle">Route53</text>
  <text x="675" y="275" fill="#E2E8F0" font-family="Inter, Arial, sans-serif" font-size="26" text-anchor="middle">CloudFront</text>
  <text x="1015" y="275" fill="#E2E8F0" font-family="Inter, Arial, sans-serif" font-size="26" text-anchor="middle">App Runner</text>
  <text x="675" y="495" fill="#E2E8F0" font-family="Inter, Arial, sans-serif" font-size="26" text-anchor="middle">API</text>
  <text x="1015" y="495" fill="#E2E8F0" font-family="Inter, Arial, sans-serif" font-size="26" text-anchor="middle">Cognito</text>
  <text x="1330" y="495" fill="#E2E8F0" font-family="Inter, Arial, sans-serif" font-size="26" text-anchor="middle">S3 Icons</text>
  <path d="M450 265H560" stroke="#64748B" stroke-width="4"/>
  <path d="M790 265H900" stroke="#64748B" stroke-width="4"/>
  <path d="M675 310V440" stroke="#64748B" stroke-width="4"/>
  <path d="M1015 310V440" stroke="#64748B" stroke-width="4"/>
  <path d="M1130 485H1240" stroke="#64748B" stroke-width="4"/>
  <text x="800" y="742" fill="#94A3B8" font-family="Inter, Arial, sans-serif" font-size="24" text-anchor="middle">Generated system map with connected infrastructure services</text>
</svg>

